<svg version="1.1" id="Layer_1" xmlns="http://www.w3.org/2000/svg" xmlns:xlink="http://www.w3.org/1999/xlink" x="0px" y="0px"
	 width="100%" viewBox="0 0 998 996" enable-background="new 0 0 998 996" xml:space="preserve">
<path fill="#4B63C0" opacity="1.000000" stroke="none"
	d="
M415.086792,982.932922
	C384.509521,977.140930 355.079834,968.856567 326.511749,957.626831
	C269.943054,935.390503 219.125839,903.840454 174.322342,862.765076
	C116.066422,809.356445 73.017349,745.596497 45.359001,671.546387
	C31.320629,633.961243 22.131662,595.188110 17.896626,555.259399
	C7.194920,454.361908 24.925154,358.788208 73.062675,269.425568
	C124.311852,174.286453 199.336990,103.675072 296.881775,57.159245
	C339.678101,36.751125 384.630005,22.762171 431.574768,16.368904
	C577.351562,-3.484008 708.014709,32.214558 821.087891,126.779930
	C908.197083,199.631119 962.468140,292.941284 985.536255,404.134460
	C995.100647,450.237122 997.383423,496.868652 993.201294,543.817200
	C984.671265,639.576294 951.230347,725.717834 892.106384,801.401062
	C820.396118,893.195618 727.381958,952.330872 613.897949,978.966248
	C570.824890,989.075745 527.059753,992.962219 482.947662,990.516724
	C460.399628,989.266663 437.986847,985.577515 415.086792,982.932922
M64.028961,654.446289
	C94.363029,740.394470 144.820786,812.351685 216.902237,867.995850
	C328.967865,954.506348 455.595642,984.971863 594.654968,958.832397
	C703.615051,938.350830 794.106323,884.155334 864.280701,798.538818
	C954.928833,687.943237 987.966675,560.712219 964.511108,419.845734
	C948.214783,321.975159 903.215820,237.981216 832.425476,168.502426
	C754.858521,92.372566 661.611877,48.485867 553.393921,36.776665
	C505.988617,31.647411 458.918823,34.061657 412.237701,43.445557
	C360.723907,53.800919 312.225983,72.278961 267.163818,99.354767
	C178.672989,152.524857 113.950974,226.569290 73.969826,321.795898
	C44.760536,391.366272 33.780777,463.982574 39.826862,539.203735
	C42.977020,578.395752 50.922127,616.554138 64.028961,654.446289
z"/>
<path fill="#F3F1F2" opacity="1.000000" stroke="none"
	d="
M63.919258,654.069092
	C50.922127,616.554138 42.977020,578.395752 39.826862,539.203735
	C33.780777,463.982574 44.760536,391.366272 73.969826,321.795898
	C113.950974,226.569290 178.672989,152.524857 267.163818,99.354767
	C312.225983,72.278961 360.723907,53.800919 412.237701,43.445557
	C458.918823,34.061657 505.988617,31.647411 553.393921,36.776665
	C661.611877,48.485867 754.858521,92.372566 832.425476,168.502426
	C903.215820,237.981216 948.214783,321.975159 964.511108,419.845734
	C987.966675,560.712219 954.928833,687.943237 864.280701,798.538818
	C794.106323,884.155334 703.615051,938.350830 594.654968,958.832397
	C455.595642,984.971863 328.967865,954.506348 216.902237,867.995850
	C144.820786,812.351685 94.363029,740.394470 63.919258,654.069092
M750.063843,193.432388
	C654.237488,119.175453 546.416138,92.962936 427.598785,115.582008
	C344.980194,131.309982 274.310760,170.827469 217.600494,233.001083
	C127.728928,331.530762 95.265877,447.519806 119.614548,578.327026
	C135.040237,661.197815 175.026535,731.864746 237.324310,788.703064
	C331.354034,874.492554 442.277130,908.025818 568.018555,888.876099
	C660.354980,874.813904 738.135254,831.643250 799.357544,761.306091
	C883.296265,664.870361 913.861450,552.436768 890.860535,426.727234
	C873.517090,331.937958 825.215454,254.727493 750.063843,193.432388
z"/>
<path fill="#4B64C0" opacity="1.000000" stroke="none"
	d="
M750.336609,193.662872
	C825.215454,254.727493 873.517090,331.937958 890.860535,426.727234
	C913.861450,552.436768 883.296265,664.870361 799.357544,761.306091
	C738.135254,831.643250 660.354980,874.813904 568.018555,888.876099
	C442.277130,908.025818 331.354034,874.492554 237.324310,788.703064
	C175.026535,731.864746 135.040237,661.197815 119.614548,578.327026
	C95.265877,447.519806 127.728928,331.530762 217.600494,233.001083
	C274.310760,170.827469 344.980194,131.309982 427.598785,115.582008
	C546.416138,92.962936 654.237488,119.175453 750.336609,193.662872
M878.002563,467.604492
	C875.652832,440.814728 870.480347,414.576416 862.431458,388.921692
	C805.554077,207.633484 621.327637,97.237701 435.014832,133.100433
	C349.923065,149.479462 278.170044,190.214645 222.006500,256.073639
	C144.478867,346.984802 116.259285,452.451202 137.169571,569.972534
	C152.970642,658.778748 196.735260,732.627747 266.622253,789.440857
	C362.545410,867.419495 472.259827,892.983154 592.477783,864.708740
	C701.367065,839.098816 782.289795,774.591492 835.689575,676.475586
	C870.932129,611.721313 883.988342,541.933350 878.002563,467.604492
z"/>
<path fill="#F4F2F2" opacity="1.000000" stroke="none"
	d="
M878.026489,468.067932
	C883.988342,541.933350 870.932129,611.721313 835.689575,676.475586
	C782.289795,774.591492 701.367065,839.098816 592.477783,864.708740
	C472.259827,892.983154 362.545410,867.419495 266.622253,789.440857
	C196.735260,732.627747 152.970642,658.778748 137.169571,569.972534
	C116.259285,452.451202 144.478867,346.984802 222.006500,256.073639
	C278.170044,190.214645 349.923065,149.479462 435.014832,133.100433
	C621.327637,97.237701 805.554077,207.633484 862.431458,388.921692
	C870.480347,414.576416 875.652832,440.814728 878.026489,468.067932
M558.183350,490.704315
	C541.111023,497.295624 524.080383,503.999329 506.920319,510.353668
	C504.425751,511.277405 500.988983,511.373138 498.532928,510.431335
	C448.520264,491.253601 398.588226,471.865601 348.635956,452.530243
	C343.921356,450.705322 339.179291,448.951294 334.209351,447.073456
	C334.113861,448.388214 334.024078,449.047974 334.024017,449.707733
	C334.016327,516.362366 334.044800,583.017029 333.929688,649.671448
	C333.923798,653.093567 335.461365,654.076355 338.218628,655.139343
	C391.616058,675.725220 444.958618,696.453552 498.394806,716.937805
	C500.997711,717.935669 504.674225,717.805420 507.311462,716.794128
	C560.278992,696.481934 613.149231,675.915771 666.108459,655.581726
	C670.044556,654.070496 671.135742,652.094360 671.127563,648.029358
	C670.997192,582.874695 671.035583,517.719788 671.035583,452.564880
	C671.035583,450.932556 671.035583,449.300232 671.035583,446.994751
	C633.280701,461.593414 596.078979,475.978210 558.183350,490.704315
M510.624756,419.146454
	C513.086853,418.762665 515.575989,418.503510 518.006958,417.976257
	C552.903931,410.407715 576.923523,376.732788 572.845276,341.144348
	C568.705444,305.017548 537.328308,277.428619 501.356781,278.286621
	C457.303864,279.337341 425.189850,318.915741 433.102753,362.405090
	C439.561615,397.902924 474.794128,424.032166 510.624756,419.146454
M549.806763,448.674805
	C528.407227,430.629425 504.286469,425.832611 477.968628,435.161255
	C458.318054,442.126648 444.800720,455.998352 436.838165,475.344788
	C437.574585,475.852234 437.939819,476.220032 438.381287,476.391357
	C458.995605,484.391449 479.593658,492.435150 500.278259,500.249725
	C502.023773,500.909149 504.524872,500.475311 506.385468,499.777527
	C519.306641,494.931519 532.155151,489.891449 545.018860,484.892792
	C552.728394,481.896973 560.423279,478.863434 568.343201,475.761322
	C564.320435,465.109314 558.156677,456.572510 549.806763,448.674805
z"/>
<path fill="#4962BF" opacity="1.000000" stroke="none"
	d="
M558.530273,490.533630
	C596.078979,475.978210 633.280701,461.593414 671.035583,446.994751
	C671.035583,449.300232 671.035583,450.932556 671.035583,452.564880
	C671.035583,517.719788 670.997192,582.874695 671.127563,648.029358
	C671.135742,652.094360 670.044556,654.070496 666.108459,655.581726
	C613.149231,675.915771 560.278992,696.481934 507.311462,716.794128
	C504.674225,717.805420 500.997711,717.935669 498.394806,716.937805
	C444.958618,696.453552 391.616058,675.725220 338.218628,655.139343
	C335.461365,654.076355 333.923798,653.093567 333.929688,649.671448
	C334.044800,583.017029 334.016327,516.362366 334.024017,449.707733
	C334.024078,449.047974 334.113861,448.388214 334.209351,447.073456
	C339.179291,448.951294 343.921356,450.705322 348.635956,452.530243
	C398.588226,471.865601 448.520264,491.253601 498.532928,510.431335
	C500.988983,511.373138 504.425751,511.277405 506.920319,510.353668
	C524.080383,503.999329 541.111023,497.295624 558.530273,490.533630
z"/>
<path fill="#4A62BF" opacity="1.000000" stroke="none"
	d="
M510.179932,419.191956
	C474.794128,424.032166 439.561615,397.902924 433.102753,362.405090
	C425.189850,318.915741 457.303864,279.337341 501.356781,278.286621
	C537.328308,277.428619 568.705444,305.017548 572.845276,341.144348
	C576.923523,376.732788 552.903931,410.407715 518.006958,417.976257
	C515.575989,418.503510 513.086853,418.762665 510.179932,419.191956
z"/>
<path fill="#4A63BF" opacity="1.000000" stroke="none"
	d="
M550.074097,448.909058
	C558.156677,456.572510 564.320435,465.109314 568.343201,475.761322
	C560.423279,478.863434 552.728394,481.896973 545.018860,484.892792
	C532.155151,489.891449 519.306641,494.931519 506.385468,499.777527
	C504.524872,500.475311 502.023773,500.909149 500.278259,500.249725
	C479.593658,492.435150 458.995605,484.391449 438.381287,476.391357
	C437.939819,476.220032 437.574585,475.852234 436.838165,475.344788
	C444.800720,455.998352 458.318054,442.126648 477.968628,435.161255
	C504.286469,425.832611 528.407227,430.629425 550.074097,448.909058
z"/>
</svg>